<svg width="210" height="157" viewBox="0 0 210 157" fill="none" xmlns="http://www.w3.org/2000/svg">
<g clip-path="url(#clip0_1531_54)">
<path d="M42.3963 91.9631H37V65H42.3963V75.7926H53.1705V65H58.5668V91.9631H53.1705V81.1889H42.3963V91.9631Z" fill="black"/>
<path d="M77.3189 77.434L70.8159 81.1889V65H77.3189V77.434Z" fill="black"/>
<path d="M77.3189 91.9631H70.8159V88.2119L77.3189 84.457V91.9631Z" fill="black"/>
<path d="M110.158 65L101.305 91.9631H95.909L87.0898 65H93.2202L98.5981 82.9926L103.991 65H110.158Z" fill="black"/>
<path d="M138.918 91.9631H120.435V65H138.918V70.3963H125.831V75.7926H134.683V81.1889H125.831V86.5668H138.918V91.9631Z" fill="black"/>
<path d="M172 78.4815C172.008 80.8722 171.371 83.2209 170.156 85.2795C169.57 86.2723 168.863 87.188 168.049 88.0053C166.802 89.2633 165.317 90.2608 163.68 90.9402C162.045 91.6197 160.29 91.9673 158.518 91.9631H150.404V65H158.518C160.289 64.9976 162.044 65.3461 163.679 66.0254C165.316 66.7047 166.801 67.7014 168.049 68.9578C168.863 69.7757 169.571 70.6927 170.156 71.6873C170.751 72.6932 171.209 73.7735 171.52 74.9C171.842 76.0667 172.003 77.2715 172 78.4815ZM166.604 78.4815C166.611 77.403 166.397 76.3345 165.973 75.3426C165.152 73.4043 163.609 71.8608 161.672 71.0381C160.678 70.6084 159.605 70.3899 158.522 70.3963H155.833V86.5668H158.522C159.604 86.5734 160.676 86.3587 161.672 85.9361C163.615 85.1195 165.16 83.5742 165.976 81.6315C166.398 80.6353 166.612 79.5633 166.604 78.4815Z" fill="black"/>
</g>
<defs>
<clipPath id="clip0_1531_54">
<rect width="135" height="27" fill="white" transform="translate(37 65)"/>
</clipPath>
</defs>
</svg>
